<svg xmlns="http://www.w3.org/2000/svg" viewBox="0 0 512 564"><path d="m 20.5,563.06364 c -2.2,-0.37731 -5.383818,-1.41685 -7.075151,-2.31009 C 8.9593074,558.39517 3.287961,551.71381 2.015385,547.31217 1.2233963,544.5728 0.99579732,481.58879 1.2066176,323.5 L 1.5,103.5 3.5880657,99.5 C 6.1915908,94.512561 12.760653,89.381455 18.29205,88.014692 29.871346,85.153543 79.614045,71.827986 121,60.500289 c 6.875,-1.881748 18.35,-4.983703 25.5,-6.893235 7.15,-1.909531 29.875,-8.03571 50.5,-13.613731 20.625,-5.57802 43.125,-11.652767 50,-13.499437 C 259.83142,23.047283 278.26861,18.06934 320.79489,6.5696639 335.4653,2.6025885 347.06548,0 350.07701,0 356.21146,0 361.45064,2.0947925 365.83532,6.3006813 372.59254,12.782369 372.44912,11.887613 373,51 l 0.5,35.5 60.5,0.5 60.5,0.5 4.71611,2.772296 c 4.94614,2.907512 8.66629,7.18445 10.63584,12.227704 0.8857,2.26793 1.10772,56.82606 0.90982,223.5785 L 510.5,546.657 l -3.03591,4.9215 c -3.63274,5.88902 -11.23482,10.8441 -18.0755,11.78172 -6.29338,0.8626 -463.8171,0.57321 -468.88859,-0.29658 z M 463.75256,325.25 464.00513,134 410.50256,133.93333 C 381.07615,133.89667 354.75,133.86667 352,133.86667 c -2.75,0 -72.5,0.03 -155,0.0667 L 47,134 v 190.83333 c 0,104.95834 0.301061,191.1344 0.669025,191.50236 0.367963,0.36797 94.080465,0.55547 208.249995,0.41667 L 463.5,516.5 Z M 162.32423,484.36246 c -5.68236,-2.01349 -12.28191,-8.05085 -15.85793,-14.50705 L 143.5,464.5 l -0.27056,-90.1108 -0.27056,-90.1108 -4.96256,-4.18449 C 131.57999,274.68358 127.15784,268.18098 124.8482,260.7601 123.16997,255.36791 123,250.82257 123,211.33398 v -43.48783 l 2.92308,-2.92307 c 4.22682,-4.22683 9.14466,-4.05534 13.67692,0.47692 l 3.4,3.4 v 33.14966 c 0,36.44383 0.17718,37.63845 5.93618,40.0239 3.84241,1.59158 9.20869,0.62823 11.67653,-2.09616 1.75246,-1.93464 1.92301,-4.58254 2.38729,-37.06391 l 0.5,-34.98041 3.26578,-2.91654 c 4.46323,-3.98594 9.32105,-3.98356 13.31114,0.007 L 183,167.84661 v 33.12659 c 0,27.43372 0.2568,33.62317 1.49429,36.01622 3.57509,6.91345 10.65544,8.06131 16.10571,2.61104 l 3.4,-3.4 V 203.0508 c 0,-35.96336 0.2049,-37.45578 5.47206,-39.85565 4.46147,-2.03279 7.49004,-1.43259 11.12794,2.20531 l 3.4,3.4 v 42.9185 c 0,48.0104 -0.0456,48.40045 -6.90402,59.0117 -2.16207,3.34514 -5.97559,7.58681 -8.4745,9.42594 l -4.54348,3.3434 -0.039,87.64466 c -0.0376,84.40305 -0.11208,87.88127 -2.01488,94.04183 -2.5378,8.21644 -7.33147,13.81158 -15.20327,17.74517 -5.20161,2.59927 -7.22421,3.05627 -13.23057,2.98939 -3.89966,-0.0434 -8.96938,-0.74478 -11.26605,-1.55859 z m 134.21736,-0.6374 c -2.17712,-1.23311 -5.32712,-4.18939 -7,-6.5695 L 286.5,472.82808 286.23684,326.81976 c -0.1804,-100.09105 0.0687,-147.24073 0.79208,-149.92717 1.3034,-4.84046 6.04472,-10.37935 11.08656,-12.9515 3.30129,-1.6842 5.94163,-1.94109 19.95034,-1.94109 18.32615,0 24.09089,1.07754 35.93418,6.71676 9.78148,4.65748 22.05363,16.70854 26.76545,26.28324 6.33079,12.86452 6.2362,11.54174 6.2181,86.9601 l -0.0164,68.5399 -2.24204,3.95841 c -1.23311,2.17712 -4.18867,5.32712 -6.56789,7 -4.21712,2.96514 -4.66306,3.05034 -17.74151,3.3897 L 347,365.19623 v 52.434 c 0,56.49399 -0.003,56.52698 -5.29773,62.20344 -4.99278,5.35255 -8.36088,6.16764 -25.41243,6.14988 -14.49738,-0.0151 -16.11385,-0.19997 -19.74825,-2.25849 z M 325,70.069806 V 53.139611 l -3.25,0.953554 c -1.7875,0.524454 -11.35,3.165053 -21.25,5.867997 -9.9,2.702943 -34.54011,9.442432 -54.7558,14.97664 C 225.52851,80.472011 208.34257,85 207.55322,85 c -0.78935,0 -1.7133,0.45 -2.05322,1 -0.4094,0.662427 19.65628,1 59.44098,1 H 325 Z"/></svg>
